<svg width="128" height="128" viewBox="0 0 128 128" fill="none" xmlns="http://www.w3.org/2000/svg" role="img" aria-label="Parts Control Station icon">
  <rect width="128" height="128" rx="28" fill="#E6EDF6"/>

  <path d="M28 34C28 29.6 31.6 26 36 26H92C96.4 26 100 29.6 100 34V84C100 88.4 96.4 92 92 92H36C31.6 92 28 88.4 28 84V34Z" fill="#F8FAFC"/>
  <path d="M34 39C34 36.8 35.8 35 38 35H90C92.2 35 94 36.8 94 39V66C94 68.2 92.2 70 90 70H38C35.8 70 34 68.2 34 66V39Z" fill="#D7E1EC"/>

  <rect x="47" y="43" width="34" height="20" rx="4" fill="#5578A6"/>
  <path d="M54 53.5L61 59.5L75 47.5" stroke="#F8FAFC" stroke-width="5" stroke-linecap="round" stroke-linejoin="round"/>

  <path d="M42 80H86" stroke="#6A7890" stroke-width="6" stroke-linecap="round"/>
  <path d="M42 88H78" stroke="#6A7890" stroke-width="6" stroke-linecap="round"/>

  <rect x="45" y="73" width="38" height="10" rx="3" fill="#4D6F9F"/>
  <rect x="88" y="73" width="10" height="10" rx="3" fill="#7F98B6"/>

  <path d="M44 26V18M58 26V18M72 26V18M86 26V18" stroke="#B8C4D4" stroke-width="4" stroke-linecap="round"/>
  <path d="M44 110V92M58 110V92M72 110V92M86 110V92" stroke="#B8C4D4" stroke-width="4" stroke-linecap="round"/>
  <path d="M28 46H20M28 60H20M28 74H20" stroke="#B8C4D4" stroke-width="4" stroke-linecap="round"/>
  <path d="M108 46H100M108 60H100M108 74H100" stroke="#B8C4D4" stroke-width="4" stroke-linecap="round"/>

  <circle cx="94" cy="34" r="5" fill="#7F98B6"/>
  <circle cx="34" cy="86" r="4" fill="#5578A6"/>
</svg>
